<svg height="480pt" viewBox="0 0 480 480" width="480pt" xmlns="http://www.w3.org/2000/svg"><path d="m8 136h464v48h-464zm0 0" fill="#87cee9"/><path d="m24 184h432v80c0 26.507812-21.492188 48-48 48h-336c-26.507812 0-48-21.492188-48-48zm0 0" fill="#2d75bb"/><path d="m216 424h48v24c0 13.253906-10.746094 24-24 24s-24-10.746094-24-24zm0 0" fill="#2d75bb"/><path d="m280 424h-80l16-64h48zm0 0" fill="#50b3c9"/><path d="m216 312h48v48h-48zm0 0" fill="#87cee9"/><path d="m216 8h48v128h-48zm0 0" fill="#50b3c9"/><path d="m216 8h48v48h-48zm0 0" fill="#86d5e2"/><path d="m264 8h64v32h-64zm0 0" fill="#50b3c9"/><path d="m168 136h-32l-16-64h64zm0 0" fill="#5a6470"/><path d="m344 136h-32l-16-64h64zm0 0" fill="#5a6470"/><g fill="#cdeef6"><path d="m408 288h-32v-16h32c4.417969 0 8-3.582031 8-8v-24h16v24c0 13.253906-10.746094 24-24 24zm0 0"/><path d="m344 272h16v16h-16zm0 0"/><path d="m48 208h16v16h-16zm0 0"/></g><path d="m472 128h-117.761719l13.523438-54.054688c.597656-2.390624.0625-4.925781-1.453125-6.867187-1.519532-1.941406-3.84375-3.078125-6.308594-3.078125h-64c-2.464844 0-4.789062 1.136719-6.308594 3.078125-1.515625 1.941406-2.050781 4.476563-1.453125 6.867187l13.523438 54.054688h-29.761719v-80h56c4.417969 0 8-3.582031 8-8v-32c0-4.417969-3.582031-8-8-8h-112c-4.417969 0-8 3.582031-8 8v120h-29.761719l13.523438-54.054688c.597656-2.390624.0625-4.925781-1.453125-6.867187-1.519532-1.941406-3.84375-3.078125-6.308594-3.078125h-64c-2.464844 0-4.789062 1.136719-6.308594 3.078125-1.515625 1.941406-2.050781 4.476563-1.453125 6.867187l13.523438 54.054688h-117.761719c-4.417969 0-8 3.582031-8 8v48c0 4.417969 3.582031 8 8 8h8v72c.035156 30.914062 25.085938 55.964844 56 56h136v39.023438l-15.761719 63.03125c-.597656 2.390624-.0625 4.925781 1.453125 6.867187 1.519532 1.941406 3.84375 3.078125 6.308594 3.078125h8v16c0 17.671875 14.328125 32 32 32s32-14.328125 32-32v-16h8c2.464844 0 4.789062-1.136719 6.308594-3.078125 1.515625-1.941406 2.050781-4.476563 1.453125-6.867187l-15.761719-63.03125v-39.023438h136c30.914062-.035156 55.964844-25.085938 56-56v-72h8c4.417969 0 8-3.582031 8-8v-48c0-4.417969-3.582031-8-8-8zm-165.753906-48h43.507812l-12 48h-19.507812zm13.753906-48h-48v-16h48zm-96-16h32v32h-32zm0 48h32v64h-32zm-93.753906 16h43.507812l-12 48h-19.507812zm139.507812 336h-59.507812l12-48h35.507812zm-13.753906 32c0 8.835938-7.164062 16-16 16s-16-7.164062-16-16v-16h32zm0-96h-32v-32h32zm192-88c-.027344 22.082031-17.917969 39.972656-40 40h-336c-22.082031-.027344-39.972656-17.917969-40-40v-72h416zm16-88h-448v-32h448zm0 0"/><path d="m432 264v-24h-16v24c0 4.417969-3.582031 8-8 8h-32v16h32c13.253906 0 24-10.746094 24-24zm0 0"/><path d="m344 272h16v16h-16zm0 0"/><path d="m48 208h16v16h-16zm0 0"/></svg>