<svg height="480pt" viewBox="-1 0 480 480" width="480pt" xmlns="http://www.w3.org/2000/svg"><path d="m8 128h48v144h-48zm0 0" fill="#2d75bb"/><path d="m56 144h32v112h-32zm0 0" fill="#50b3c9"/><path d="m280 280h96v32h-96zm0 0" fill="#50b3c9"/><path d="m280 168h-24l-16-32h-96l-16 32h-40v64h176c17.671875 0 32 14.328125 32 32v16h64v-32c0-44.183594-35.816406-80-80-80zm0 0" fill="#86d5e2"/><path d="m126.425781 175.84375 3.140625-15.691406 40 8-3.140625 15.691406zm0 0" fill="#cdeef6"/><path d="m214.480469 168.3125 40.015625-7.992188 3.136718 15.695313-40.015624 7.996094zm0 0" fill="#cdeef6"/><path d="m160 104h64v32h-64zm0 0" fill="#2d75bb"/><path d="m176 72h32v32h-32zm0 0" fill="#195c85"/><path d="m104 40h176v32h-176zm0 0" fill="#dd3e46"/><path d="m192 8c8.835938 0 16 7.164062 16 16v16h-32v-16c0-8.835938 7.164062-16 16-16zm0 0" fill="#fcf05a"/><path d="m136 40h16v32h-16zm0 0" fill="#b11e48"/><path d="m184 40h16v32h-16zm0 0" fill="#b11e48"/><path d="m232 40h16v32h-16zm0 0" fill="#b11e48"/><path d="m384 472h-112l24-160h64zm0 0" fill="#cdeef6"/><path d="m296.101562 470.683594 16.019532-96 15.78125 2.632812-16.015625 96zm0 0" fill="#86d5e2"/><path d="m336.046875 400.878906 15.902344-1.765625 8 71.996094-15.902344 1.769531zm0 0" fill="#86d5e2"/><path d="m416 440s-4.375-38.976562 16-64 58.398438 10.113281 24 32-40 32-40 32zm0 0" fill="#cdeef6"/><path d="m240 456s1.808594-52.648438-24-72c-32-24-60.105469 20.992188-24 40s48 32 48 32zm0 0" fill="#cdeef6"/><g fill="#2d75bb"><path d="m248 368h16v16h-16zm0 0"/><path d="m392 344h16v16h-16zm0 0"/><path d="m216 320h16v16h-16zm0 0"/><path d="m424 280h16v16h-16zm0 0"/></g><path d="m64 264h32v-24h168c13.253906 0 24 10.746094 24 24v8h-8c-4.417969 0-8 3.582031-8 8v32c0 4.417969 3.582031 8 8 8h6.710938l-22.621094 150.816406c-.347656 2.300782.328125 4.640625 1.847656 6.40625 1.519531 1.761719 3.734375 2.777344 6.0625 2.777344h112c2.328125 0 4.542969-1.015625 6.0625-2.777344 1.519531-1.765625 2.195312-4.105468 1.847656-6.40625l-22.621094-150.816406h6.710938c4.417969 0 8-3.582031 8-8v-32c0-4.417969-3.582031-8-8-8h-8v-24c-.058594-48.578125-39.421875-87.941406-88-88h-19.054688l-13.746093-27.574219c-1.359375-2.726562-4.152344-4.441406-7.199219-4.425781h-8v-24c0-4.417969-3.582031-8-8-8h-8v-16h64c4.417969 0 8-3.582031 8-8v-32c0-4.417969-3.582031-8-8-8h-64v-8c0-13.253906-10.746094-24-24-24s-24 10.746094-24 24v8h-64c-4.417969 0-8 3.582031-8 8v32c0 4.417969 3.582031 8 8 8h64v16h-8c-4.417969 0-8 3.582031-8 8v24h-8c-3.03125 0-5.804688 1.710938-7.160156 4.425781l-13.785156 27.574219h-27.054688v-24h-32v-16h-64v160h64zm224 24h80v16h-80zm86.710938 176h-15.511719l-7.199219-64.878906-15.902344 1.757812 6.964844 63.121094h-29.597656l14.445312-86.679688-15.773437-2.640624-14.914063 89.320312h-15.933594l21.597657-144h50.226562zm-222.710938-400v-16h32v16zm80-16v16h-32v-16zm40 16h-24v-16h24zm-88-40c0-4.417969 3.582031-8 8-8s8 3.582031 8 8v8h-16zm-72 24h24v16h-24zm72 32h16v16h-16zm-16 32h48v16h-48zm-40.800781 64 39.199219 7.839844 3.136718-15.679688-29.726562-5.953125 9.136718-18.207031h86.109376l9.105468 18.207031-29.761718 5.953125 3.136718 15.679688 39.265625-7.839844h23.199219c39.746094.042969 71.957031 32.253906 72 72v24h-48v-8c-.027344-22.082031-17.917969-39.972656-40-40h-168v-48zm-47.199219-24v96h-16v-96zm-64 112v-128h32v128zm0 0"/><path d="m425.785156 370.953125c-22.234375 27.3125-17.929687 68.214844-17.738281 69.933594.417969 3.351562 2.902344 6.074219 6.199219 6.792969.578125.132812 1.164062.199218 1.753906.199218 2.777344-.019531 5.359375-1.441406 6.863281-3.773437.066407-.097657 6.402344-9.648438 37.410157-29.351563 11.585937-5.898437 18.429687-18.25 17.285156-31.203125-1.976563-11.21875-10.285156-20.269531-21.292969-23.199219-11.371094-3.023437-23.441406 1.171876-30.480469 10.601563zm22.941406 4.398437c1.125.003907 2.238282.15625 3.320313.457032 4.910156 1.257812 8.671875 5.203125 9.695313 10.167968.800781 5.222657-2.78125 10.65625-10.046876 15.269532-9.578124 5.976562-18.800781 12.507812-27.625 19.554687.757813-14.332031 5.660157-28.136719 14.113282-39.738281 2.421875-3.457031 6.328125-5.570312 10.542968-5.710938zm0 0"/><path d="m184.199219 372.199219c-10.328125 5.171875-16.929688 15.652343-17.136719 27.199219.355469 13.765624 8.613281 26.09375 21.210938 31.65625 16.660156 7.867187 32.105468 18.089843 45.855468 30.351562 2.199219 2.382812 5.613282 3.203125 8.652344 2.078125s5.101562-3.972656 5.21875-7.210937c.089844-2.320313 1.601562-57.066407-27.199219-78.671876-10.132812-8.71875-24.382812-10.824218-36.601562-5.402343zm47 66.199219c-11.3125-7.976563-23.160157-15.164063-35.464844-21.511719-7.199219-2.828125-12.128906-9.550781-12.664063-17.269531.082032-5.546876 3.238282-10.589844 8.195313-13.089844 1.964844-.964844 4.128906-1.457032 6.320313-1.449219 4.980468.257813 9.75 2.109375 13.597656 5.289063 12.921875 9.703124 18.175781 31.351562 20.015625 48.03125zm0 0"/><path d="m248 368h16v16h-16zm0 0"/><path d="m392 344h16v16h-16zm0 0"/><path d="m216 320h16v16h-16zm0 0"/><path d="m424 280h16v16h-16zm0 0"/></svg>