<svg height="480pt" viewBox="0 0 480 480" width="480pt" xmlns="http://www.w3.org/2000/svg"><path d="m240 312-64-16v-128l64-16zm0 0" fill="#86d5e2"/><path d="m128 168h48v128h-48zm0 0" fill="#2d75bb"/><path d="m8 184h120v96h-120zm0 0" fill="#87cee9"/><path d="m240 312 64-16v-128l-64-16zm0 0" fill="#50b3c9"/><path d="m352 296h-48v-128h48zm0 0" fill="#2d75bb"/><path d="m472 280h-120v-96h120zm0 0" fill="#87cee9"/><path d="m176 168 64-16 64 16v-48h-128zm0 0" fill="#7d8d9c"/><path d="m224 88h32v32h-32zm0 0" fill="#aabece"/><path d="m120 56h240v32h-240zm0 0" fill="#dd3e46"/><path d="m240 24c8.835938 0 16 7.164062 16 16v16h-32v-16c0-8.835938 7.164062-16 16-16zm0 0" fill="#aabece"/><path d="m120 8h32v48h-32zm0 0" fill="#b11e48"/><g fill="#cdeef6"><path d="m448 256h-16v-32h-16v-16h32zm0 0"/><path d="m88 208h16v16h-16zm0 0"/><path d="m8 208h64v16h-64zm0 0"/><path d="m200 256h16v16h-16zm0 0"/><path d="m264 224h16v16h-16zm0 0"/><path d="m232 448c0 13.253906-10.746094 24-24 24s-24-10.746094-24-24c0-24 24-56 24-56s24 32 24 56zm0 0"/><path d="m296 392c0 13.253906-10.746094 24-24 24s-24-10.746094-24-24c0-24 24-56 24-56s24 32 24 56zm0 0"/></g><path d="m472 176h-112v-8c0-4.417969-3.582031-8-8-8h-40v-40c0-4.417969-3.582031-8-8-8h-40v-16h96c4.417969 0 8-3.582031 8-8v-32c0-4.417969-3.582031-8-8-8h-96v-8c0-13.253906-10.746094-24-24-24s-24 10.746094-24 24v8h-56v-40c0-4.417969-3.582031-8-8-8h-32c-4.417969 0-8 3.582031-8 8v80c0 4.417969 3.582031 8 8 8h96v16h-40c-4.417969 0-8 3.582031-8 8v40h-40c-4.417969 0-8 3.582031-8 8v8h-112c-4.417969 0-8 3.582031-8 8v96c0 4.417969 3.582031 8 8 8h112v8c0 4.417969 3.582031 8 8 8h47.007812l63.046876 15.761719c1.277343.316406 2.613281.316406 3.890624 0l63.046876-15.761719h47.007812c4.417969 0 8-3.582031 8-8v-8h112c4.417969 0 8-3.582031 8-8v-96c0-4.417969-3.582031-8-8-8zm-240-136c0-4.417969 3.582031-8 8-8s8 3.582031 8 8v8h-16zm-104-24h16v32h-16zm0 48h224v16h-224zm104 32h16v16h-16zm64 32v29.753906l-54.054688-13.515625c-.058593 0-1.433593-.046875-2.082031 0-.648437.050781-1.742187 0-1.808593 0l-54.054688 13.515625v-29.753906zm-280 144v-48h56v-16h-56v-16h104v80zm120-96h32v112h-32zm48-1.753906 48-12v139.507812l-48-12zm64-12 48 12v115.507812l-48 12zm96 125.753906h-32v-112h32zm120-16h-104v-80h104zm0 0"/><path d="m432 256h16v-48h-32v16h16zm0 0"/><path d="m88 208h16v16h-16zm0 0"/><path d="m200 256h16v16h-16zm0 0"/><path d="m264 224h16v16h-16zm0 0"/><path d="m240 448c0-26.398438-24.550781-59.40625-25.601562-60.800781-1.574219-1.914063-3.921876-3.019531-6.398438-3.019531s-4.824219 1.105468-6.398438 3.019531c-1.050781 1.394531-25.601562 34.441406-25.601562 60.800781 0 17.671875 14.328125 32 32 32s32-14.328125 32-32zm-48 0c0-12.921875 8.871094-30.222656 16-41.710938 7.136719 11.472657 16 28.75 16 41.710938 0 8.835938-7.164062 16-16 16s-16-7.164062-16-16zm0 0"/><path d="m304 392c0-26.398438-24.550781-59.40625-25.601562-60.800781-1.574219-1.914063-3.921876-3.019531-6.398438-3.019531s-4.824219 1.105468-6.398438 3.019531c-1.050781 1.394531-25.601562 34.441406-25.601562 60.800781 0 17.671875 14.328125 32 32 32s32-14.328125 32-32zm-48 0c0-12.921875 8.871094-30.222656 16-41.710938 7.136719 11.472657 16 28.75 16 41.710938 0 8.835938-7.164062 16-16 16s-16-7.164062-16-16zm0 0"/></svg>